<svg xmlns="http://www.w3.org/2000/svg" viewBox="0 0 64 64">
  <defs>
    <linearGradient id="brand" x1="6" y1="2" x2="58" y2="62" gradientUnits="userSpaceOnUse">
      <stop stop-color="#10b981" />
      <stop offset="0.5" stop-color="#14b8a6" />
      <stop offset="1" stop-color="#a3e635" />
    </linearGradient>
  </defs>
  <rect width="64" height="64" rx="16" fill="url(#brand)" />
  <g fill="none" stroke="#ffffff" stroke-width="2.25" stroke-linecap="round" stroke-linejoin="round" transform="translate(12 12) scale(1.6667)">
    <path d="m16 16 3-8 3 8c-.87.65-1.92 1-3 1s-2.13-.35-3-1Z" />
    <path d="m2 16 3-8 3 8c-.87.65-1.92 1-3 1s-2.13-.35-3-1Z" />
    <path d="M7 21h10" />
    <path d="M12 3v18" />
    <path d="M3 7h2c2 0 5-1 7-2 2 1 5 2 7 2h2" />
  </g>
</svg>
